<svg width="176" height="73" viewBox="0 0 176 73" fill="none" xmlns="http://www.w3.org/2000/svg">
<path d="M88.5373 7.96596C89.7345 8.02211 90.878 8.48072 91.7837 9.26796C93.0179 10.4398 93.3415 12.3937 92.7573 13.9571C90.4865 18.6452 85.0859 21.7766 81.3956 22.8125C79.1878 23.3333 76.3967 23.3333 74.3837 22.5521C73.4091 23.138 72.5869 25.0316 71.3969 24.2447C69.6745 22.8956 71.1655 20.7841 70.1712 19.2858C69.9661 18.9773 69.4497 18.9547 69.1901 18.4499C67.8261 15.4544 69.5146 12.589 71.3969 10.3105C74.5351 6.79888 83.5385 2.88627 88.5373 7.96596ZM78.0843 10.3096C76.3309 10.6351 74.3507 11.4002 73.2802 12.6541C72.2088 13.907 71.5277 15.1289 72.1768 16.4309C74.4495 14.7383 75.5529 12.3937 78.0853 10.9615C78.0843 10.7002 78.4738 10.5049 78.0843 10.3096ZM88.6681 10.9615C84.1876 10.57 80.8114 13.9571 77.63 17.2121C77.4353 17.7329 76.2669 18.3188 77.1756 18.9047C81.4614 19.2953 85.5516 18.0593 88.6681 15.193C89.5777 14.3467 90.2249 13.24 89.7725 12.0673C89.5777 11.6125 89.1196 11.1568 88.6681 10.9615ZM127.491 30.366C129.569 35.4457 131.322 43.454 127.491 48.3384C126.453 49.5102 124.636 50.5905 123.467 49.7055C119.181 46.2552 117.365 41.3057 114.703 36.877C114.313 36.6817 114.313 37.2034 114.119 37.3987C113.145 41.8916 114.962 47.7525 111.912 51.2679C110.743 51.4632 109.65 50.8603 109.25 49.7055C107.756 45.0824 109.313 40.2631 109.702 35.6401C110.612 33.2955 111.001 30.5613 113.014 28.8027C116.261 30.1047 117.818 33.7522 119.7 36.4222C121.065 38.4403 122.167 40.7198 123.725 42.5426C125.088 41.9567 124.417 40.1697 124.375 39.0913C123.854 34.8589 122.685 30.9519 121.581 26.9148C121.518 25.8732 120.934 24.1145 122.035 23.4635C124.961 24.7665 126.192 27.8262 127.491 30.366ZM107.885 28.8027C107.885 29.7801 107.106 31.001 106.455 31.1472C100.223 32.1237 93.2756 31.5378 87.433 33.4908C87.2382 34.2069 88.082 34.3371 88.5364 34.5324C93.5343 35.3136 98.7947 35.5089 103.665 36.7468C106.239 37.4025 107.172 40.4594 107.366 42.9983C107.486 45.0003 106.718 47.426 104.769 48.7941C99.9658 51.8547 92.6294 51.7236 87.7584 48.9252C85.8968 47.8779 84.1227 46.191 83.9928 44.1069C84.0041 42.452 84.7078 41.1491 85.8761 40.5254C90.5514 38.6366 96.3291 39.6801 100.355 42.0878C100.613 43.3908 99.2076 43.32 98.535 43.7814C94.0545 46.3863 90.6793 40.8528 86.5243 42.869C85.9401 43.2596 85.5177 44.3493 86.1997 44.6928C91.3284 46.9722 97.0422 45.3438 102.106 43.9116C102.69 43.7163 103.405 43.1304 103.469 42.5445C103.274 40.4603 100.938 40.0056 99.4437 39.4197C95.0291 38.313 90.16 38.313 85.4199 37.8573C84.5112 37.662 83.3532 37.027 83.0832 36.2949C82.5639 34.7325 82.5639 32.5832 83.7323 31.2812C89.7696 25.9411 98.9235 26.3978 106.585 27.83C107.105 28.0215 107.689 28.2168 107.885 28.8027ZM79.5133 31.2774C80.0974 37.528 80.422 43.3247 80.2922 49.9008C80.1623 50.7461 79.1887 50.9424 78.5396 51.2679C77.5011 51.4632 76.1587 51.2415 75.7477 50.682C74.2548 48.2714 74.774 45.0173 74.6442 42.0869C74.8389 37.4648 74.774 32.4502 76.0731 28.1517C76.3215 27.5271 77.0468 26.9799 77.6309 27.3696C79.1887 28.1517 79.4483 29.715 79.5133 31.2774ZM151.646 30.366C151.958 30.8925 152.284 31.7058 151.646 32.0586C148.724 33.3606 144.765 32.7747 141.387 33.1653C140.479 33.9465 139.764 35.2485 140.087 36.4213C140.414 36.6166 140.704 36.9138 141.063 36.876C143.139 37.0072 146.256 35.8995 147.621 37.8525C147.954 38.4337 147.576 40.6037 146.648 40.6528C144.114 40.9802 139.949 40.3339 138.725 40.9802C137.167 42.0218 137.296 44.0399 136.712 45.6693C137.817 46.3854 138.973 45.6523 140.282 45.473C142.687 45.0824 145.349 44.3663 147.749 44.8871C148.204 45.7334 148.854 46.6458 148.398 47.6874C144.305 50.9433 139.026 54.2804 133.402 51.9198C131.291 50.9707 130.35 47.7525 131.065 45.0192C131.519 43.0653 133.531 41.1774 132.298 39.0932C132.104 38.1809 132.624 37.4006 133.403 37.2053C135.545 37.2053 135.089 34.5353 136.194 33.2974C134.961 31.9303 131.845 31.9954 132.17 29.2603C133.663 28.4791 135.482 28.7395 137.167 28.4791C140.998 27.6969 145.283 27.2412 149.181 27.6969C149.957 27.8536 150.997 29.3895 151.646 30.366ZM58.9318 15.5195C64.9231 20.4312 72.696 28.8036 71.7224 38.4403C70.5531 46.0599 62.5027 51.7896 55.6855 53.6134C49.063 55.5664 40.7529 55.3711 33.9997 53.8087C33.5453 55.0465 33.0909 56.5429 31.663 57.0646C30.7543 57.3901 29.585 57.1948 28.871 56.6089C26.8588 54.7201 28.4815 51.0735 25.5597 49.9027C19.846 47.493 13.6778 42.7388 10.757 36.8789C10.3675 35.7071 10.8219 34.5353 11.5359 33.6239C16.0164 30.0424 21.6643 28.6102 27.3132 27.5026C27.6377 27.6328 27.5079 27.1771 27.7676 27.0469C28.0921 23.1399 28.2219 19.1669 29.4552 15.6506C29.7364 15.1572 30.4288 14.9996 30.8841 15.3251C34.4549 18.0593 32.7664 23.205 34.3251 26.9157C41.1423 27.2412 47.9596 27.5667 53.3479 31.4095C55.1662 32.9068 55.6093 35.7665 55.0355 37.4006C54.4626 39.0319 52.569 40.2009 50.8155 40.3292C49.6462 40.3292 47.4394 40.4433 47.5692 39.5489C47.699 38.6536 51.5408 37.1883 50.3611 35.9665C48.6651 34.2107 40.1791 33.1663 34.9197 32.5153C34.2706 32.3851 33.6751 32.5804 33.6751 33.2965C33.5453 38.245 33.1558 43.7144 33.9997 48.4695C34.0646 48.796 34.454 49.1866 34.7795 49.2498C44.0632 50.748 53.8671 49.9008 61.1387 44.5616C64.5148 41.8284 65.6192 37.9837 65.0341 33.7522C62.1123 21.9662 49.8419 14.8675 39.7783 10.3096C29.9754 6.01202 19.132 3.79767 7.51064 4.38452C5.6603 4.52038 2.72815 5.161 2.70652 5.81766C2.68488 6.47432 6.02811 6.2677 5.62737 7.51026C5.22758 8.75188 1.82979 8.01502 0.823247 7.70556C-0.183296 7.3961 -0.0854636 5.94692 0.174168 5.03552C2.70652 0.542669 9.77301 0.179431 12.9648 0.0218698C30.6235 -0.434774 47.6999 6.31016 58.9318 15.5195ZM27.1185 32.971C22.6379 33.0361 17.8987 33.4918 13.7437 35.0542C12.8999 35.3797 11.8604 36.2911 12.5095 37.3987C14.1971 39.6772 16.6109 41.5482 18.8723 42.8681C21.1338 44.1861 24.1318 45.8636 26.8588 46.2552C27.5079 42.0218 27.5079 37.8544 27.443 33.4918C27.1824 33.3616 27.4421 33.1012 27.1185 32.971ZM161.318 27.045C161.123 32.7096 155.863 36.2269 155.863 41.8916C156.058 42.0869 156.189 42.3473 156.447 42.219C160.669 37.595 164.823 31.018 170.991 29.065C172.617 28.9348 174.085 30.3509 174.693 31.4095C176.836 35.7071 176.318 41.7633 173.331 45.6702C170.248 49.5054 164.889 53.3539 158.788 52.702C156.257 58.9534 154.501 65.5304 153.527 72.3678C153.008 73.7349 151.775 72.498 150.997 72.2376C145.738 68.0703 150.056 57.0382 150.412 55.6305C150.769 54.2266 152.176 50.915 153.205 48.1421C150.738 43.7153 152.296 38.3743 154.308 34.272C155.866 31.5369 158.01 28.8017 160.542 26.7185C160.864 26.7195 161.123 26.7846 161.318 27.045ZM171.773 34.0777C170.994 33.9475 170.668 34.99 170.02 35.1853C167.035 38.5715 164.047 41.9576 162.553 45.9948C164.567 46.2552 166.254 44.9532 168.008 44.2371C170.994 42.3482 172.877 39.2244 172.682 35.642C172.552 35.0542 172.032 34.5985 171.773 34.0777Z" fill="black"/>
</svg>
