<svg width="40" height="40" viewBox="0 0 40 40" fill="none" xmlns="http://www.w3.org/2000/svg">
<rect x="0.5" y="0.5" width="39" height="39" rx="19.5" stroke="#70A9FF"/>
<path d="M17.0371 28.8887C17.4462 28.8887 17.7778 28.557 17.7778 28.1479C17.7778 27.7388 17.4462 27.4072 17.0371 27.4072C16.628 27.4072 16.2963 27.7388 16.2963 28.1479C16.2963 28.557 16.628 28.8887 17.0371 28.8887Z" stroke="#70A9FF" stroke-width="1.5" stroke-linecap="round" stroke-linejoin="round"/>
<path d="M25.1854 28.8887C25.5945 28.8887 25.9262 28.557 25.9262 28.1479C25.9262 27.7388 25.5945 27.4072 25.1854 27.4072C24.7763 27.4072 24.4447 27.7388 24.4447 28.1479C24.4447 28.557 24.7763 28.8887 25.1854 28.8887Z" stroke="#70A9FF" stroke-width="1.5" stroke-linecap="round" stroke-linejoin="round"/>
<path d="M11.1111 13.3333H14.074L16.0592 23.2519C16.127 23.5929 16.3125 23.8992 16.5833 24.1173C16.8542 24.3353 17.1931 24.4511 17.5407 24.4445H24.7407C25.0883 24.4511 25.4272 24.3353 25.6981 24.1173C25.9689 23.8992 26.1545 23.5929 26.2222 23.2519L27.4074 17.037H14.8148" stroke="#70A9FF" stroke-width="1.5" stroke-linecap="round" stroke-linejoin="round"/>
</svg>
