<svg width="36" height="36" viewBox="0 0 36 36" fill="none" xmlns="http://www.w3.org/2000/svg">
<rect x="0.75" y="0.75" width="34.5" height="34.5" rx="17.25" stroke="#70A9FF" stroke-width="1.5"/>
<path d="M15.3337 25.9998C15.7018 25.9998 16.0003 25.7014 16.0003 25.3332C16.0003 24.965 15.7018 24.6665 15.3337 24.6665C14.9655 24.6665 14.667 24.965 14.667 25.3332C14.667 25.7014 14.9655 25.9998 15.3337 25.9998Z" stroke="#70A9FF" stroke-width="1.5" stroke-linecap="round" stroke-linejoin="round"/>
<path d="M22.6672 25.9998C23.0353 25.9998 23.3338 25.7014 23.3338 25.3332C23.3338 24.965 23.0353 24.6665 22.6672 24.6665C22.299 24.6665 22.0005 24.965 22.0005 25.3332C22.0005 25.7014 22.299 25.9998 22.6672 25.9998Z" stroke="#70A9FF" stroke-width="1.5" stroke-linecap="round" stroke-linejoin="round"/>
<path d="M10 12H12.6667L14.4533 20.9267C14.5143 21.2336 14.6813 21.5093 14.925 21.7055C15.1688 21.9018 15.4738 22.006 15.7867 22H22.2667C22.5795 22.006 22.8845 21.9018 23.1283 21.7055C23.3721 21.5093 23.539 21.2336 23.6 20.9267L24.6667 15.3333H13.3333" stroke="#70A9FF" stroke-width="2" stroke-linecap="round" stroke-linejoin="round"/>
</svg>
