<svg width="22" height="18" viewBox="0 0 22 18" fill="none" xmlns="http://www.w3.org/2000/svg">
<path d="M0.961434 15.7789C1.49242 16.4783 2.48983 16.6148 3.18921 16.0838L11.4804 9.78896L19.7716 3.49412C20.471 2.96313 20.6075 1.96572 20.0765 1.26634C19.5455 0.566959 18.5481 0.430446 17.8487 0.961431L1.26634 13.5511C0.566961 14.0821 0.430449 15.0795 0.961434 15.7789Z" fill="#70A9FF"/>
<path d="M20.0765 15.7789C19.5455 16.4783 18.5481 16.6148 17.8488 16.0838L9.55756 9.78896L1.26637 3.49412C0.566989 2.96313 0.430477 1.96572 0.961462 1.26634C1.49245 0.566959 2.48986 0.430446 3.18924 0.961431L19.7716 13.5511C20.471 14.0821 20.6075 15.0795 20.0765 15.7789Z" fill="#70A9FF"/>
</svg>
