<svg width="16" height="16" viewBox="0 0 16 16" fill="none" xmlns="http://www.w3.org/2000/svg">
<path fill-rule="evenodd" clip-rule="evenodd" d="M10.9635 8C10.9635 9.76731 9.53079 11.2 7.76348 11.2C5.99617 11.2 4.56348 9.76731 4.56348 8C4.56348 6.23269 5.99617 4.8 7.76348 4.8C9.53079 4.8 10.9635 6.23269 10.9635 8ZM9.36348 8C9.36348 8.88366 8.64713 9.6 7.76348 9.6C6.87982 9.6 6.16348 8.88366 6.16348 8C6.16348 7.11634 6.87982 6.4 7.76348 6.4C8.64713 6.4 9.36348 7.11634 9.36348 8Z" fill="#464646"/>
<path fill-rule="evenodd" clip-rule="evenodd" d="M0.107209 5.26101L1.56329 2.739C1.75127 2.41342 2.14059 2.26265 2.49882 2.37671L3.96839 2.8446C4.16449 2.70041 4.36795 2.56813 4.5776 2.44809C4.77732 2.33324 4.98382 2.22885 5.19635 2.13568L5.52593 0.629043C5.60627 0.261776 5.9315 0 6.30745 0H9.21962C9.59557 0 9.9208 0.261776 10.0011 0.629043L10.3307 2.13568C10.5562 2.23454 10.775 2.34603 10.986 2.46926C11.1827 2.58363 11.3739 2.70883 11.5585 2.8446L13.0281 2.37671C13.3863 2.26265 13.7756 2.41342 13.9636 2.739L15.4197 5.26101C15.6077 5.5866 15.5436 5.99914 15.2657 6.25235L14.1257 7.29109C14.1519 7.52706 14.1647 7.76343 14.1645 7.99911C14.1648 8.23538 14.1519 8.47235 14.1257 8.70893L15.2657 9.74767C15.5436 10.0009 15.6077 10.4134 15.4197 10.739L13.9636 13.261C13.7756 13.5866 13.3863 13.7374 13.0281 13.6233L11.5585 13.1554C11.3716 13.2928 11.178 13.4194 10.9788 13.535C10.77 13.6565 10.5537 13.7666 10.3307 13.8643L10.0011 15.371C9.9208 15.7382 9.59557 16 9.21962 16H6.30745C5.9315 16 5.60627 15.7382 5.52593 15.371L5.19635 13.8643C4.98629 13.7722 4.78213 13.6692 4.58458 13.5559C4.37247 13.4348 4.16666 13.3012 3.96839 13.1554L2.49882 13.6233C2.14059 13.7374 1.75127 13.5866 1.56329 13.261L0.107209 10.739C-0.0807668 10.4134 -0.016677 10.0009 0.261216 9.74767L1.40121 8.70893C1.37501 8.47265 1.36217 8.23597 1.36239 7.99999C1.36217 7.76402 1.37501 7.52736 1.40121 7.29109L0.261217 6.25235C-0.0166761 5.99914 -0.0807663 5.5866 0.107209 5.26101ZM8.5757 1.6L8.94185 3.27381L9.68831 3.60105C9.85712 3.67506 10.021 3.75857 10.1792 3.85096L10.1818 3.85246C10.3293 3.9382 10.4725 4.032 10.6107 4.13363L11.2673 4.61647L12.8999 4.09665L13.7121 5.50337L12.4456 6.65736L12.5354 7.46744C12.555 7.64408 12.5647 7.82115 12.5645 7.99784L12.5645 8.00083C12.5647 8.17797 12.5551 8.35548 12.5354 8.53257L12.4456 9.34265L13.7121 10.4967L12.8999 11.9034L11.2673 11.3836L10.6107 11.8664C10.4708 11.9693 10.3258 12.0641 10.1764 12.1507L10.1738 12.1522C10.0172 12.2433 9.85519 12.3258 9.68831 12.3989L8.94184 12.7262L8.5757 14.4H6.95137L6.58522 12.7262L5.83876 12.3989C5.68151 12.33 5.52857 12.2528 5.38048 12.1679L5.37786 12.1664C5.21882 12.0756 5.06466 11.9755 4.91625 11.8664L4.25961 11.3836L2.62697 11.9034L1.81481 10.4967L3.0813 9.34265L2.99146 8.53257C2.97185 8.35571 2.96222 8.17841 2.96239 8.00149L2.96239 7.9985C2.96222 7.82159 2.97185 7.6443 2.99146 7.46744L3.0813 6.65736L1.81481 5.50336L2.62697 4.09665L4.25961 4.61647L4.91624 4.13363C5.06303 4.02569 5.21545 3.92659 5.37264 3.83659L5.37524 3.83509C5.52497 3.74898 5.67966 3.6708 5.83875 3.60105L6.58522 3.27381L6.95137 1.6H8.5757Z" fill="#464646"/>
</svg>
