<svg width="36" height="36" viewBox="0 0 36 36" fill="none" xmlns="http://www.w3.org/2000/svg">
<rect x="0.75" y="0.75" width="34.5" height="34.5" rx="17.25" stroke="#70A9FF" stroke-width="1.5"/>
<path d="M20.7101 20.4999H21.2923L25.3858 24.6126L25.3866 24.6134C25.6013 24.8282 25.6013 25.1816 25.3866 25.3963C25.1718 25.6111 24.8184 25.6111 24.6037 25.3963L20.5001 21.2928V20.7099V20.5081L20.3601 20.3628L20.2788 20.2785L20.3631 20.3598L20.5083 20.4999H20.7101ZM20.0505 19.4045L19.7525 19.7522L19.4047 20.0503C18.1114 21.1589 16.3494 21.7309 14.4734 21.4169C11.9111 20.9836 9.85973 18.8392 9.54649 16.2596L9.5464 16.2589C9.06608 12.3517 12.3519 9.06584 16.2591 9.54616L16.2599 9.54625C18.8395 9.85949 20.9839 11.9109 21.4171 14.4731C21.7311 16.3492 21.1591 18.1111 20.0505 19.4045ZM10.5001 15.4999C10.5001 18.266 12.734 20.4999 15.5001 20.4999C18.2663 20.4999 20.5001 18.266 20.5001 15.4999C20.5001 12.7338 18.2663 10.4999 15.5001 10.4999C12.734 10.4999 10.5001 12.7338 10.5001 15.4999Z" fill="#70A9FF" stroke="#70A9FF"/>
</svg>
