<svg width="32" height="32" viewBox="0 0 32 32" fill="none" xmlns="http://www.w3.org/2000/svg">
<path d="M4 8H6.66667H28" stroke="#70A9FF" stroke-width="2" stroke-linecap="round" stroke-linejoin="round"/>
<path d="M26.3333 7.99996C26.3333 7.44767 25.8856 6.99996 25.3333 6.99996C24.781 6.99996 24.3333 7.44767 24.3333 7.99996H26.3333ZM7.66663 7.99996C7.66663 7.44767 7.21891 6.99996 6.66663 6.99996C6.11434 6.99996 5.66663 7.44767 5.66663 7.99996H7.66663ZM9.66663 7.99996C9.66663 8.55224 10.1143 8.99996 10.6666 8.99996C11.2189 8.99996 11.6666 8.55224 11.6666 7.99996H9.66663ZM20.3333 7.99996C20.3333 8.55224 20.781 8.99996 21.3333 8.99996C21.8856 8.99996 22.3333 8.55224 22.3333 7.99996H20.3333ZM24.3333 7.99996V26.6666H26.3333V7.99996H24.3333ZM24.3333 26.6666C24.3333 27.5871 23.5871 28.3333 22.6666 28.3333V30.3333C24.6917 30.3333 26.3333 28.6917 26.3333 26.6666H24.3333ZM22.6666 28.3333H9.33329V30.3333H22.6666V28.3333ZM9.33329 28.3333C8.41282 28.3333 7.66663 27.5871 7.66663 26.6666H5.66663C5.66663 28.6917 7.30825 30.3333 9.33329 30.3333V28.3333ZM7.66663 26.6666V7.99996H5.66663V26.6666H7.66663ZM11.6666 7.99996V5.33329H9.66663V7.99996H11.6666ZM11.6666 5.33329C11.6666 4.41282 12.4128 3.66663 13.3333 3.66663V1.66663C11.3082 1.66663 9.66663 3.30825 9.66663 5.33329H11.6666ZM13.3333 3.66663H18.6666V1.66663H13.3333V3.66663ZM18.6666 3.66663C19.5871 3.66663 20.3333 4.41282 20.3333 5.33329H22.3333C22.3333 3.30825 20.6917 1.66663 18.6666 1.66663V3.66663ZM20.3333 5.33329V7.99996H22.3333V5.33329H20.3333Z" fill="#70A9FF"/>
<path d="M13.3334 14.6666V22.6666" stroke="#70A9FF" stroke-width="2" stroke-linecap="round" stroke-linejoin="round"/>
<path d="M18.6666 14.6666V22.6666" stroke="#70A9FF" stroke-width="2" stroke-linecap="round" stroke-linejoin="round"/>
</svg>
